<svg width="212px" height="565px"
 viewBox="0.00 0.00 212.46 565.00" xmlns="http://www.w3.org/2000/svg" xmlns:xlink="http://www.w3.org/1999/xlink">
<g id="graph0" class="graph" transform="scale(1.0 1.0) rotate(0) translate(4 561)">
<title>de.uniks.pmws2021.model</title>
<polygon fill="white" stroke="transparent" points="-4,4 -4,-561 208.46,-561 208.46,4 -4,4"/>
<!-- Dungeon -->
<g id="node1" class="node">
<title>Dungeon</title>
<polygon fill="none" stroke="black" points="53.5,-531 53.5,-553 130.5,-553 130.5,-531 53.5,-531"/>
<text text-anchor="start" x="66.34" y="-537.4" font-family="Times,serif" font-size="14.00">Dungeon</text>
<polygon fill="none" stroke="black" points="53.5,-509 53.5,-531 130.5,-531 130.5,-509 53.5,-509"/>
<text text-anchor="start" x="56.5" y="-515.4" font-family="Times,serif" font-size="14.00">name :String</text>
</g>
<!-- Enemy -->
<g id="node2" class="node">
<title>Enemy</title>
<polygon fill="none" stroke="black" points="89.5,-443 89.5,-465 171.5,-465 171.5,-443 89.5,-443"/>
<text text-anchor="start" x="110.67" y="-449.4" font-family="Times,serif" font-size="14.00">Enemy</text>
<polygon fill="none" stroke="black" points="89.5,-337 89.5,-443 171.5,-443 171.5,-337 89.5,-337"/>
<text text-anchor="start" x="92.5" y="-427.4" font-family="Times,serif" font-size="14.00">name :String</text>
<text text-anchor="start" x="92.5" y="-410.6" font-family="Times,serif" font-size="14.00">lp :int</text>
<text text-anchor="start" x="92.5" y="-393.8" font-family="Times,serif" font-size="14.00">coins :int</text>
<text text-anchor="start" x="92.5" y="-377" font-family="Times,serif" font-size="14.00">atk :int</text>
<text text-anchor="start" x="92.5" y="-360.2" font-family="Times,serif" font-size="14.00">def :int</text>
<text text-anchor="start" x="92.5" y="-343.4" font-family="Times,serif" font-size="14.00">stance :String</text>
</g>
<!-- Enemy&#45;&gt;Dungeon -->
<g id="edge1" class="edge">
<title>Enemy&#45;&gt;Dungeon</title>
<path fill="none" stroke="black" d="M109.97,-469.37C106.12,-482.02 102.32,-494.49 99.18,-504.81"/>
<text text-anchor="middle" x="75.07" y="-492.21" font-family="Times,serif" font-size="14.00">dungeon</text>
<text text-anchor="middle" x="86.06" y="-473.57" font-family="Times,serif" font-size="14.00">enemy *</text>
</g>
<!-- Enemy&#45;&gt;Enemy -->
<g id="edge4" class="edge">
<title>Enemy&#45;&gt;Enemy</title>
<path fill="none" stroke="black" d="M179.58,-377.41C189.99,-379.81 197.5,-387.67 197.5,-401 197.5,-414.33 189.99,-422.19 179.58,-424.59"/>
<text text-anchor="middle" x="192.02" y="-411.99" font-family="Times,serif" font-size="14.00">prev</text>
<text text-anchor="middle" x="191.63" y="-364.81" font-family="Times,serif" font-size="14.00">next</text>
</g>
<!-- Hero -->
<g id="node3" class="node">
<title>Hero</title>
<polygon fill="none" stroke="black" points="52.5,-270.5 52.5,-292.5 130.5,-292.5 130.5,-270.5 52.5,-270.5"/>
<text text-anchor="start" x="77.51" y="-276.9" font-family="Times,serif" font-size="14.00">Hero</text>
<polygon fill="none" stroke="black" points="52.5,-197.5 52.5,-270.5 130.5,-270.5 130.5,-197.5 52.5,-197.5"/>
<text text-anchor="start" x="55.5" y="-254.9" font-family="Times,serif" font-size="14.00">name :String</text>
<text text-anchor="start" x="55.5" y="-238.1" font-family="Times,serif" font-size="14.00">lp :int</text>
<text text-anchor="start" x="55.5" y="-221.3" font-family="Times,serif" font-size="14.00">coins :int</text>
<text text-anchor="start" x="55.5" y="-204.5" font-family="Times,serif" font-size="14.00">mode :String</text>
</g>
<!-- Hero&#45;&gt;Dungeon -->
<g id="edge3" class="edge">
<title>Hero&#45;&gt;Dungeon</title>
<path fill="none" stroke="black" d="M78.4,-297.43C75.95,-309.04 73.76,-321.38 72.5,-333 65.98,-393.09 63.41,-409.24 72.5,-469 74.34,-481.06 78.1,-494.02 81.8,-504.88"/>
<text text-anchor="middle" x="105.91" y="-492.28" font-family="Times,serif" font-size="14.00">dungeon</text>
<text text-anchor="middle" x="65.96" y="-301.63" font-family="Times,serif" font-size="14.00">hero</text>
</g>
<!-- Hero&#45;&gt;Enemy -->
<g id="edge2" class="edge">
<title>Hero&#45;&gt;Enemy</title>
<path fill="none" stroke="black" d="M104.38,-297.19C107.28,-308.63 110.41,-320.94 113.46,-332.94"/>
<text text-anchor="middle" x="87.8" y="-320.34" font-family="Times,serif" font-size="14.00">attacking</text>
<text text-anchor="middle" x="130.04" y="-301.39" font-family="Times,serif" font-size="14.00">attacking</text>
</g>
<!-- HeroStat -->
<g id="node4" class="node">
<title>HeroStat</title>
<polygon fill="none" stroke="black" points="62.5,-132 62.5,-154 120.5,-154 120.5,-132 62.5,-132"/>
<text text-anchor="start" x="66.62" y="-138.4" font-family="Times,serif" font-size="14.00">HeroStat</text>
<polygon fill="none" stroke="black" points="62.5,-76 62.5,-132 120.5,-132 120.5,-76 62.5,-76"/>
<text text-anchor="start" x="65.5" y="-116.4" font-family="Times,serif" font-size="14.00">level :int</text>
<text text-anchor="start" x="65.5" y="-99.6" font-family="Times,serif" font-size="14.00">value :int</text>
<text text-anchor="start" x="65.5" y="-82.8" font-family="Times,serif" font-size="14.00">cost :int</text>
</g>
<!-- HeroStat&#45;&gt;Hero -->
<g id="edge5" class="edge">
<title>HeroStat&#45;&gt;Hero</title>
<path fill="none" stroke="black" d="M91.5,-158.08C91.5,-169.49 91.5,-181.98 91.5,-193.82"/>
<text text-anchor="middle" x="79.06" y="-181.22" font-family="Times,serif" font-size="14.00">hero</text>
<text text-anchor="middle" x="73.81" y="-162.28" font-family="Times,serif" font-size="14.00">stats *</text>
</g>
<!-- AttackStat -->
<g id="node5" class="node">
<title>AttackStat</title>
<polygon fill="none" stroke="black" points="8.5,-10 8.5,-32 73.5,-32 73.5,-10 8.5,-10"/>
<text text-anchor="start" x="11.45" y="-16.4" font-family="Times,serif" font-size="14.00">AttackStat</text>
<polygon fill="none" stroke="black" points="8.5,-4 8.5,-10 73.5,-10 73.5,-4 8.5,-4"/>
</g>
<!-- AttackStat&#45;&gt;HeroStat -->
<g id="edge6" class="edge">
<title>AttackStat&#45;&gt;HeroStat</title>
<path fill="none" stroke="black" d="M49.85,-36.42C53.91,-43.97 58.89,-53.25 63.97,-62.72"/>
<polygon fill="none" stroke="black" points="61.04,-64.66 68.85,-71.82 67.21,-61.35 61.04,-64.66"/>
</g>
<!-- DefenseStat -->
<g id="node6" class="node">
<title>DefenseStat</title>
<polygon fill="none" stroke="black" points="107.5,-10 107.5,-32 180.5,-32 180.5,-10 107.5,-10"/>
<text text-anchor="start" x="110.18" y="-16.4" font-family="Times,serif" font-size="14.00">DefenseStat</text>
<polygon fill="none" stroke="black" points="107.5,-4 107.5,-10 180.5,-10 180.5,-4 107.5,-4"/>
</g>
<!-- DefenseStat&#45;&gt;HeroStat -->
<g id="edge7" class="edge">
<title>DefenseStat&#45;&gt;HeroStat</title>
<path fill="none" stroke="black" d="M133.96,-36.42C129.79,-44.05 124.65,-53.44 119.41,-63.01"/>
<polygon fill="none" stroke="black" points="116.32,-61.36 114.59,-71.82 122.46,-64.73 116.32,-61.36"/>
</g>
</g>
</svg>
