<?xml version="1.0" encoding="UTF-8" standalone="no"?>
<!DOCTYPE svg PUBLIC "-//W3C//DTD SVG 1.1//EN"
 "http://www.w3.org/Graphics/SVG/1.1/DTD/svg11.dtd">
<!-- Generated by graphviz version 2.44.0 (20200408.0750)
 -->
<!-- Title: de.uniks.pmws2021.model Pages: 1 -->
<svg width="245px" height="472px"
 viewBox="0.00 0.00 244.88 472.00" xmlns="http://www.w3.org/2000/svg" xmlns:xlink="http://www.w3.org/1999/xlink">
<g id="graph0" class="graph" transform="scale(1.0 1.0) rotate(0) translate(4 468)">
<title>de.uniks.pmws2021.model</title>
<polygon fill="white" stroke="transparent" points="-4,4 -4,-468 240.88,-468 240.88,4 -4,4"/>
<!-- d -->
<g id="node1" class="node">
<title>d</title>
<polygon fill="none" stroke="black" points="124,-442 124,-460 177,-460 177,-442 124,-442"/>
<text text-anchor="start" x="127.03" y="-449" font-family="Times,serif" text-decoration="underline" font-size="10.00">d :Dungeon</text>
<polygon fill="none" stroke="black" points="124,-424 124,-442 177,-442 177,-424 124,-424"/>
<text text-anchor="start" x="127" y="-430" font-family="Times,serif" font-size="10.00">name = null</text>
</g>
<!-- goblin -->
<g id="node2" class="node">
<title>goblin</title>
<polygon fill="none" stroke="black" points="77,-362 77,-380 151,-380 151,-362 77,-362"/>
<text text-anchor="start" x="84.42" y="-369" font-family="Times,serif" text-decoration="underline" font-size="10.00">goblin :Enemy</text>
<polygon fill="none" stroke="black" points="77,-284 77,-362 151,-362 151,-284 77,-284"/>
<text text-anchor="start" x="80" y="-350" font-family="Times,serif" font-size="10.00">atk = 5</text>
<text text-anchor="start" x="80" y="-338" font-family="Times,serif" font-size="10.00">coins = 5</text>
<text text-anchor="start" x="80" y="-326" font-family="Times,serif" font-size="10.00">def = 7</text>
<text text-anchor="start" x="80" y="-314" font-family="Times,serif" font-size="10.00">lp = 30</text>
<text text-anchor="start" x="80" y="-302" font-family="Times,serif" font-size="10.00">name = &quot;Goblin&quot;</text>
<text text-anchor="start" x="80" y="-290" font-family="Times,serif" font-size="10.00">stance = null</text>
</g>
<!-- d&#45;&gt;goblin -->
<g id="edge1" class="edge">
<title>d&#45;&gt;goblin</title>
<path fill="none" stroke="black" d="M142.97,-419.92C139.54,-409.61 135.23,-396.7 131.01,-384.02"/>
<text text-anchor="middle" x="117.68" y="-387.02" font-family="Times,serif" font-size="10.00">enemy</text>
<text text-anchor="middle" x="125.75" y="-410.92" font-family="Times,serif" font-size="10.00">dungeon</text>
</g>
<!-- ogre -->
<g id="node3" class="node">
<title>ogre</title>
<polygon fill="none" stroke="black" points="8,-222 8,-240 74,-240 74,-222 8,-222"/>
<text text-anchor="start" x="15.31" y="-229" font-family="Times,serif" text-decoration="underline" font-size="10.00">ogre :Enemy</text>
<polygon fill="none" stroke="black" points="8,-144 8,-222 74,-222 74,-144 8,-144"/>
<text text-anchor="start" x="11" y="-210" font-family="Times,serif" font-size="10.00">atk = 10</text>
<text text-anchor="start" x="11" y="-198" font-family="Times,serif" font-size="10.00">coins = 7</text>
<text text-anchor="start" x="11" y="-186" font-family="Times,serif" font-size="10.00">def = 10</text>
<text text-anchor="start" x="11" y="-174" font-family="Times,serif" font-size="10.00">lp = 60</text>
<text text-anchor="start" x="11" y="-162" font-family="Times,serif" font-size="10.00">name = &quot;Ogre&quot;</text>
<text text-anchor="start" x="11" y="-150" font-family="Times,serif" font-size="10.00">stance = null</text>
</g>
<!-- d&#45;&gt;ogre -->
<g id="edge2" class="edge">
<title>d&#45;&gt;ogre</title>
<path fill="none" stroke="black" d="M115.23,-428.04C95.63,-418.84 72.62,-404.46 60,-384 34.2,-342.17 31.82,-285.13 34.44,-244.3"/>
<text text-anchor="middle" x="21.11" y="-247.3" font-family="Times,serif" font-size="10.00">enemy</text>
<text text-anchor="middle" x="98.01" y="-431.04" font-family="Times,serif" font-size="10.00">dungeon</text>
</g>
<!-- hydra -->
<g id="node4" class="node">
<title>hydra</title>
<polygon fill="none" stroke="black" points="104,-82 104,-100 175,-100 175,-82 104,-82"/>
<text text-anchor="start" x="111.31" y="-89" font-family="Times,serif" text-decoration="underline" font-size="10.00">hydra :Enemy</text>
<polygon fill="none" stroke="black" points="104,-4 104,-82 175,-82 175,-4 104,-4"/>
<text text-anchor="start" x="107" y="-70" font-family="Times,serif" font-size="10.00">atk = 20</text>
<text text-anchor="start" x="107" y="-58" font-family="Times,serif" font-size="10.00">coins = 10</text>
<text text-anchor="start" x="107" y="-46" font-family="Times,serif" font-size="10.00">def = 8</text>
<text text-anchor="start" x="107" y="-34" font-family="Times,serif" font-size="10.00">lp = 50</text>
<text text-anchor="start" x="107" y="-22" font-family="Times,serif" font-size="10.00">name = &quot;Hydra&quot;</text>
<text text-anchor="start" x="107" y="-10" font-family="Times,serif" font-size="10.00">stance = null</text>
</g>
<!-- d&#45;&gt;hydra -->
<g id="edge3" class="edge">
<title>d&#45;&gt;hydra</title>
<path fill="none" stroke="black" d="M164.14,-419.79C170.61,-409.35 177.94,-396.38 183,-384 224.5,-282.54 258.82,-242.13 219,-140 211.4,-120.5 197.15,-102.73 182.77,-88.4"/>
<text text-anchor="middle" x="196.09" y="-91.4" font-family="Times,serif" font-size="10.00">enemy</text>
<text text-anchor="middle" x="181.36" y="-410.79" font-family="Times,serif" font-size="10.00">dungeon</text>
</g>
<!-- sir_Slayalot -->
<g id="node5" class="node">
<title>sir_Slayalot</title>
<polygon fill="none" stroke="black" points="109,-210 109,-228 202,-228 202,-210 109,-210"/>
<text text-anchor="start" x="120.23" y="-217" font-family="Times,serif" text-decoration="underline" font-size="10.00">sir Slayalot :Hero</text>
<polygon fill="none" stroke="black" points="109,-156 109,-210 202,-210 202,-156 109,-156"/>
<text text-anchor="start" x="112" y="-198" font-family="Times,serif" font-size="10.00">coins = 30</text>
<text text-anchor="start" x="112" y="-186" font-family="Times,serif" font-size="10.00">lp = 100</text>
<text text-anchor="start" x="112" y="-174" font-family="Times,serif" font-size="10.00">mode = null</text>
<text text-anchor="start" x="112" y="-162" font-family="Times,serif" font-size="10.00">name = &quot;Sir Slayalot&quot;</text>
</g>
<!-- d&#45;&gt;sir_Slayalot -->
<g id="edge4" class="edge">
<title>d&#45;&gt;sir_Slayalot</title>
<path fill="none" stroke="black" d="M158.33,-419.99C162.1,-409.38 166.12,-396.21 168,-384 176.03,-331.94 169.13,-271.12 162.71,-232.36"/>
<text text-anchor="middle" x="153.83" y="-235.36" font-family="Times,serif" font-size="10.00">hero</text>
<text text-anchor="middle" x="141.11" y="-410.99" font-family="Times,serif" font-size="10.00">dungeon</text>
</g>
<!-- goblin&#45;&gt;ogre -->
<g id="edge6" class="edge">
<title>goblin&#45;&gt;ogre</title>
<path fill="none" stroke="black" d="M86.82,-279.61C80.74,-268.12 74.29,-255.93 68.21,-244.43"/>
<text text-anchor="middle" x="59.6" y="-247.43" font-family="Times,serif" font-size="10.00">next</text>
<text text-anchor="middle" x="77.93" y="-270.61" font-family="Times,serif" font-size="10.00">prev</text>
</g>
<!-- goblin&#45;&gt;sir_Slayalot -->
<g id="edge5" class="edge">
<title>goblin&#45;&gt;sir_Slayalot</title>
<path fill="none" stroke="black" d="M129.27,-279.61C133.91,-263.98 138.94,-247.06 143.31,-232.35"/>
<text text-anchor="middle" x="124.98" y="-235.35" font-family="Times,serif" font-size="10.00">attacking</text>
<text text-anchor="middle" x="110.94" y="-270.61" font-family="Times,serif" font-size="10.00">attacking</text>
</g>
<!-- ogre&#45;&gt;hydra -->
<g id="edge7" class="edge">
<title>ogre&#45;&gt;hydra</title>
<path fill="none" stroke="black" d="M77.49,-139.61C85.65,-128.12 94.31,-115.93 102.48,-104.43"/>
<text text-anchor="middle" x="93.87" y="-107.43" font-family="Times,serif" font-size="10.00">next</text>
<text text-anchor="middle" x="68.61" y="-130.61" font-family="Times,serif" font-size="10.00">prev</text>
</g>
</g>
</svg>
