<?xml version="1.0" encoding="UTF-8" standalone="no"?>
<!DOCTYPE svg PUBLIC "-//W3C//DTD SVG 1.1//EN"
 "http://www.w3.org/Graphics/SVG/1.1/DTD/svg11.dtd">
<!-- Generated by graphviz version 2.44.0 (20200408.0750)
 -->
<!-- Title: de.uniks.pmws2021.model Pages: 1 -->
<svg width="316px" height="472px"
 viewBox="0.00 0.00 316.00 472.00" xmlns="http://www.w3.org/2000/svg" xmlns:xlink="http://www.w3.org/1999/xlink">
<g id="graph0" class="graph" transform="scale(1.0 1.0) rotate(0) translate(4 468)">
<title>de.uniks.pmws2021.model</title>
<polygon fill="white" stroke="transparent" points="-4,4 -4,-468 312,-468 312,4 -4,4"/>
<!-- d -->
<g id="node1" class="node">
<title>d</title>
<polygon fill="none" stroke="black" points="59.5,-442 59.5,-460 112.5,-460 112.5,-442 59.5,-442"/>
<text text-anchor="start" x="62.53" y="-449" font-family="Times,serif" text-decoration="underline" font-size="10.00">d :Dungeon</text>
<polygon fill="none" stroke="black" points="59.5,-424 59.5,-442 112.5,-442 112.5,-424 59.5,-424"/>
<text text-anchor="start" x="62.5" y="-430" font-family="Times,serif" font-size="10.00">name = null</text>
</g>
<!-- goblin -->
<g id="node2" class="node">
<title>goblin</title>
<polygon fill="none" stroke="black" points="85.5,-362 85.5,-380 159.5,-380 159.5,-362 85.5,-362"/>
<text text-anchor="start" x="92.92" y="-369" font-family="Times,serif" text-decoration="underline" font-size="10.00">goblin :Enemy</text>
<polygon fill="none" stroke="black" points="85.5,-284 85.5,-362 159.5,-362 159.5,-284 85.5,-284"/>
<text text-anchor="start" x="88.5" y="-350" font-family="Times,serif" font-size="10.00">atk = 5</text>
<text text-anchor="start" x="88.5" y="-338" font-family="Times,serif" font-size="10.00">coins = 5</text>
<text text-anchor="start" x="88.5" y="-326" font-family="Times,serif" font-size="10.00">def = 7</text>
<text text-anchor="start" x="88.5" y="-314" font-family="Times,serif" font-size="10.00">lp = 30</text>
<text text-anchor="start" x="88.5" y="-302" font-family="Times,serif" font-size="10.00">name = &quot;Goblin&quot;</text>
<text text-anchor="start" x="88.5" y="-290" font-family="Times,serif" font-size="10.00">stance = null</text>
</g>
<!-- d&#45;&gt;goblin -->
<g id="edge1" class="edge">
<title>d&#45;&gt;goblin</title>
<path fill="none" stroke="black" d="M92.72,-419.92C96.25,-409.61 100.68,-396.7 105.02,-384.02"/>
<text text-anchor="middle" x="91.69" y="-387.02" font-family="Times,serif" font-size="10.00">enemy</text>
<text text-anchor="middle" x="75.5" y="-410.92" font-family="Times,serif" font-size="10.00">dungeon</text>
</g>
<!-- ogre -->
<g id="node3" class="node">
<title>ogre</title>
<polygon fill="none" stroke="black" points="45.5,-222 45.5,-240 111.5,-240 111.5,-222 45.5,-222"/>
<text text-anchor="start" x="52.81" y="-229" font-family="Times,serif" text-decoration="underline" font-size="10.00">ogre :Enemy</text>
<polygon fill="none" stroke="black" points="45.5,-144 45.5,-222 111.5,-222 111.5,-144 45.5,-144"/>
<text text-anchor="start" x="48.5" y="-210" font-family="Times,serif" font-size="10.00">atk = 10</text>
<text text-anchor="start" x="48.5" y="-198" font-family="Times,serif" font-size="10.00">coins = 7</text>
<text text-anchor="start" x="48.5" y="-186" font-family="Times,serif" font-size="10.00">def = 10</text>
<text text-anchor="start" x="48.5" y="-174" font-family="Times,serif" font-size="10.00">lp = 60</text>
<text text-anchor="start" x="48.5" y="-162" font-family="Times,serif" font-size="10.00">name = &quot;Ogre&quot;</text>
<text text-anchor="start" x="48.5" y="-150" font-family="Times,serif" font-size="10.00">stance = null</text>
</g>
<!-- d&#45;&gt;ogre -->
<g id="edge2" class="edge">
<title>d&#45;&gt;ogre</title>
<path fill="none" stroke="black" d="M77.63,-419.95C74.07,-409.33 70.27,-396.16 68.5,-384 61.64,-337.01 65.57,-282.92 70.37,-244.33"/>
<text text-anchor="middle" x="57.04" y="-247.33" font-family="Times,serif" font-size="10.00">enemy</text>
<text text-anchor="middle" x="94.85" y="-410.95" font-family="Times,serif" font-size="10.00">dungeon</text>
</g>
<!-- hydra -->
<g id="node4" class="node">
<title>hydra</title>
<polygon fill="none" stroke="black" points="8.5,-82 8.5,-100 79.5,-100 79.5,-82 8.5,-82"/>
<text text-anchor="start" x="15.81" y="-89" font-family="Times,serif" text-decoration="underline" font-size="10.00">hydra :Enemy</text>
<polygon fill="none" stroke="black" points="8.5,-4 8.5,-82 79.5,-82 79.5,-4 8.5,-4"/>
<text text-anchor="start" x="11.5" y="-70" font-family="Times,serif" font-size="10.00">atk = 20</text>
<text text-anchor="start" x="11.5" y="-58" font-family="Times,serif" font-size="10.00">coins = 10</text>
<text text-anchor="start" x="11.5" y="-46" font-family="Times,serif" font-size="10.00">def = 8</text>
<text text-anchor="start" x="11.5" y="-34" font-family="Times,serif" font-size="10.00">lp = 50</text>
<text text-anchor="start" x="11.5" y="-22" font-family="Times,serif" font-size="10.00">name = &quot;Hydra&quot;</text>
<text text-anchor="start" x="11.5" y="-10" font-family="Times,serif" font-size="10.00">stance = null</text>
</g>
<!-- d&#45;&gt;hydra -->
<g id="edge3" class="edge">
<title>d&#45;&gt;hydra</title>
<path fill="none" stroke="black" d="M75.15,-419.99C70.22,-409.39 64.53,-396.21 60.5,-384 26.2,-280.15 19.17,-248.97 28.5,-140 29.49,-128.39 31.22,-116.01 33.15,-104.34"/>
<text text-anchor="middle" x="19.83" y="-107.34" font-family="Times,serif" font-size="10.00">enemy</text>
<text text-anchor="middle" x="57.93" y="-410.99" font-family="Times,serif" font-size="10.00">dungeon</text>
</g>
<!-- sir_Slayalot -->
<g id="node5" class="node">
<title>sir_Slayalot</title>
<polygon fill="none" stroke="black" points="145.5,-210 145.5,-228 245.5,-228 245.5,-210 145.5,-210"/>
<text text-anchor="start" x="160.23" y="-217" font-family="Times,serif" text-decoration="underline" font-size="10.00">sir Slayalot :Hero</text>
<polygon fill="none" stroke="black" points="145.5,-156 145.5,-210 245.5,-210 245.5,-156 145.5,-156"/>
<text text-anchor="start" x="148.5" y="-198" font-family="Times,serif" font-size="10.00">coins = 30</text>
<text text-anchor="start" x="148.5" y="-186" font-family="Times,serif" font-size="10.00">lp = 100</text>
<text text-anchor="start" x="148.5" y="-174" font-family="Times,serif" font-size="10.00">mode = &quot;normal mode&quot;</text>
<text text-anchor="start" x="148.5" y="-162" font-family="Times,serif" font-size="10.00">name = &quot;Sir Slayalot&quot;</text>
</g>
<!-- d&#45;&gt;sir_Slayalot -->
<g id="edge4" class="edge">
<title>d&#45;&gt;sir_Slayalot</title>
<path fill="none" stroke="black" d="M120.19,-428.35C140.1,-419.19 163.63,-404.75 176.5,-384 205.13,-337.84 205,-273.03 201.13,-232.03"/>
<text text-anchor="middle" x="192.25" y="-235.03" font-family="Times,serif" font-size="10.00">hero</text>
<text text-anchor="middle" x="137.41" y="-431.35" font-family="Times,serif" font-size="10.00">dungeon</text>
</g>
<!-- goblin&#45;&gt;ogre -->
<g id="edge6" class="edge">
<title>goblin&#45;&gt;ogre</title>
<path fill="none" stroke="black" d="M106.12,-279.61C102.45,-268.12 98.56,-255.93 94.9,-244.43"/>
<text text-anchor="middle" x="86.29" y="-247.43" font-family="Times,serif" font-size="10.00">next</text>
<text text-anchor="middle" x="97.23" y="-270.61" font-family="Times,serif" font-size="10.00">prev</text>
</g>
<!-- goblin&#45;&gt;sir_Slayalot -->
<g id="edge5" class="edge">
<title>goblin&#45;&gt;sir_Slayalot</title>
<path fill="none" stroke="black" d="M149.68,-279.61C157.95,-263.98 166.91,-247.06 174.68,-232.35"/>
<text text-anchor="middle" x="156.36" y="-235.35" font-family="Times,serif" font-size="10.00">attacking</text>
<text text-anchor="middle" x="131.36" y="-270.61" font-family="Times,serif" font-size="10.00">attacking</text>
</g>
<!-- ogre&#45;&gt;hydra -->
<g id="edge7" class="edge">
<title>ogre&#45;&gt;hydra</title>
<path fill="none" stroke="black" d="M65.47,-139.61C62.55,-128.12 59.46,-115.93 56.54,-104.43"/>
<text text-anchor="middle" x="47.93" y="-107.43" font-family="Times,serif" font-size="10.00">next</text>
<text text-anchor="middle" x="56.58" y="-130.61" font-family="Times,serif" font-size="10.00">prev</text>
</g>
<!-- a -->
<g id="node6" class="node">
<title>a</title>
<polygon fill="none" stroke="black" points="140.5,-64 140.5,-82 197.5,-82 197.5,-64 140.5,-64"/>
<text text-anchor="start" x="143.04" y="-71" font-family="Times,serif" text-decoration="underline" font-size="10.00">a :AttackStat</text>
<polygon fill="none" stroke="black" points="140.5,-22 140.5,-64 197.5,-64 197.5,-22 140.5,-22"/>
<text text-anchor="start" x="147.85" y="-52" font-family="Times,serif" font-size="10.00">cost = 5</text>
<text text-anchor="start" x="147.85" y="-40" font-family="Times,serif" font-size="10.00">level = 2</text>
<text text-anchor="start" x="147.85" y="-28" font-family="Times,serif" font-size="10.00">value = 15</text>
</g>
<!-- sir_Slayalot&#45;&gt;a -->
<g id="edge8" class="edge">
<title>sir_Slayalot&#45;&gt;a</title>
<path fill="none" stroke="black" d="M187.84,-151.82C183.78,-131.11 178.86,-105.95 175,-86.2"/>
<text text-anchor="middle" x="166.11" y="-89.2" font-family="Times,serif" font-size="10.00">stats</text>
<text text-anchor="middle" x="178.95" y="-142.82" font-family="Times,serif" font-size="10.00">hero</text>
</g>
<!-- d1 -->
<g id="node7" class="node">
<title>d1</title>
<polygon fill="none" stroke="black" points="231.5,-64 231.5,-82 300.5,-82 300.5,-64 231.5,-64"/>
<text text-anchor="start" x="234.21" y="-71" font-family="Times,serif" text-decoration="underline" font-size="10.00">d1 :DefenseStat</text>
<polygon fill="none" stroke="black" points="231.5,-22 231.5,-64 300.5,-64 300.5,-22 231.5,-22"/>
<text text-anchor="start" x="244.85" y="-52" font-family="Times,serif" font-size="10.00">cost = 5</text>
<text text-anchor="start" x="244.85" y="-40" font-family="Times,serif" font-size="10.00">level = 3</text>
<text text-anchor="start" x="244.85" y="-28" font-family="Times,serif" font-size="10.00">value = 20</text>
</g>
<!-- sir_Slayalot&#45;&gt;d1 -->
<g id="edge9" class="edge">
<title>sir_Slayalot&#45;&gt;d1</title>
<path fill="none" stroke="black" d="M215.37,-151.82C225.88,-131.11 238.64,-105.95 248.66,-86.2"/>
<text text-anchor="middle" x="239.77" y="-89.2" font-family="Times,serif" font-size="10.00">stats</text>
<text text-anchor="middle" x="206.49" y="-142.82" font-family="Times,serif" font-size="10.00">hero</text>
</g>
</g>
</svg>
